:SAMPLES-PER-SECOND 30
:FULLY-SPECIFIED
:DEGREES
140
root  59.8043 25.0788 3.29461 156.338 -3.07283 -177.702
RightUpLeg  -56.2973 -13.9153 5.72873
RightLeg  76.8457 -2.10812 -11.9478
RightFoot  0.284553 0.2104 -2.0724
RightToes  0.000482159 0.542163 -0.142577
Spine  48.057 -1.32161 4.36767
Spine1  2.64443 -0.901562 1.36687
HEad  -1.09846 0.359374 0.555302
LeftShoulder1  9.05667 -13.6252 -46.1167
LeftArm  -21.7135 19.657 -21.2736
LeftForeArm  -174.936 -79.5675 -131.541
LeftHand  -0.25398 0.0180481 5.50724
RightShoulder  4.69187 8.62299 32.7486
RightArm  -17.5915 -14.7982 36.785
RightForeArm  24.0852 69.0471 28.4606
RightHand  -2.21796 4.45633 -26.0674
LeftUpLeg  -55.4013 4.66373 3.57212
LeftLeg  74.6366 2.61019 11.9319
LeftFoot  3.1915 -0.248158 1.79528
LeftToes  1.06246e-005 4.65855e-005 -8.18503e-006
141
root  59.7283 24.9087 3.3214 156.294 -2.67851 -177.532
RightUpLeg  -57.1106 -12.8436 4.7671
RightLeg  78.3662 -2.29437 -14.7911
RightFoot  -1.32713 0.306715 -3.59837
RightToes  0.000482159 0.542163 -0.142577
Spine  46.2914 -1.68591 5.31304
Spine1  2.06595 -0.876956 0.828877
HEad  -3.49887 0.810959 0.652358
LeftShoulder1  9.26893 -13.5819 -47.3476
LeftArm  -21.8401 22.5711 -20.6006
LeftForeArm  -179.699 -79.8573 -128.962
LeftHand  -0.25398 0.0180481 5.50724
RightShoulder  4.82164 8.62918 33.7944
RightArm  -17.0055 -17.3039 35.4038
RightForeArm  20.2869 66.8047 25.3398
RightHand  -2.05375 3.84035 -25.7401
LeftUpLeg  -56.0053 4.89729 3.75471
LeftLeg  75.2212 2.53597 12.1644
LeftFoot  3.88704 -0.297186 2.04219
LeftToes  1.06246e-005 4.65855e-005 -8.18503e-006
142
root  59.6857 24.778 3.40223 155.817 -2.42708 -177.127
RightUpLeg  -56.6343 -11.6724 3.37743
RightLeg  78.6634 -2.47237 -16.2606
RightFoot  -2.15503 0.324799 -4.20815
RightToes  0.000482159 0.542163 -0.142577
Spine  45.4381 -2.0629 6.30404
Spine1  1.54915 -0.81834 0.576777
HEad  -6.39395 1.39902 0.494601
LeftShoulder1  9.29665 -13.3943 -48.0252
LeftArm  -22.6435 24.6059 -21.2257
LeftForeArm  176.901 -80.0124 -127.279
LeftHand  -0.25398 0.0180481 5.50724
RightShoulder  4.90919 8.5619 34.7308
RightArm  -17.1598 -19.7528 34.3948
RightForeArm  18.654 66.006 24.4533
RightHand  -1.80262 2.94506 -25.0235
LeftUpLeg  -56.253 5.03279 4.07585
LeftLeg  75.6405 2.58733 12.7958
LeftFoot  4.96235 -0.407404 2.63418
LeftToes  1.06246e-005 4.65855e-005 -8.18503e-006
143
root  59.6816 24.6955 3.51114 155.081 -2.32104 -176.758
RightUpLeg  -55.1031 -10.6665 1.80138
RightLeg  77.7846 -2.84706 -16.8208
RightFoot  -1.36205 0.25639 -3.06973
RightToes  0.000482159 0.542163 -0.142577
Spine  45.2599 -2.22741 6.96467
Spine1  1.11172 -0.673345 0.71763
HEad  -9.58179 1.92365 -0.052732
LeftShoulder1  9.30845 -13.271 -48.443
LeftArm  -23.8063 25.7203 -22.6802
LeftForeArm  174.683 -80.1784 -125.725
LeftHand  -0.25398 0.0180481 5.50724
RightShoulder  4.95673 8.47188 35.4211
RightArm  -18.0822 -22.1307 34.0131
RightForeArm  17.8687 66.4099 25.146
RightHand  -1.62406 2.29146 -24.4677
LeftUpLeg  -56.1503 5.16018 4.28528
LeftLeg  76.0344 2.56422 13.1067
LeftFoot  5.06516 -0.469583 3.04495
LeftToes  1.06246e-005 4.65855e-005 -8.18503e-006
144
root  59.6887 24.6381 3.60033 154.552 -2.35388 -176.664
RightUpLeg  -53.8503 -10.4291 0.744244
RightLeg  76.6031 -3.23733 -16.9084
RightFoot  0.799031 0.257438 -2.34126
RightToes  0.000482159 0.542163 -0.142577
Spine  45.1045 -2.18586 7.19123
Spine1  0.823698 -0.528316 0.964071
HEad  -12.7463 2.28223 -0.731572
LeftShoulder1  9.38647 -13.3133 -48.7283
LeftArm  -24.8312 25.9977 -24.2716
LeftForeArm  173.017 -80.3851 -123.959
LeftHand  -0.25398 0.0180481 5.50724
RightShoulder  5.00576 8.45932 35.8648
RightArm  -19.4569 -24.1209 34.3412
RightForeArm  17.0777 67.3824 26.7414
RightHand  -1.61732 2.22045 -24.5777
LeftUpLeg  -55.931 5.30227 4.14118
LeftLeg  76.4252 2.29049 12.2781
LeftFoot  3.74151 -0.385051 2.728
LeftToes  1.06246e-005 4.65855e-005 -8.18503e-006
145
root  59.6924 24.6114 3.66072 154.218 -2.37534 -176.802
RightUpLeg  -53.3892 -10.9921 0.491603
RightLeg  75.8787 -3.27107 -16.0607
RightFoot  2.7805 0.421961 -3.2485
RightToes  0.000482159 0.542163 -0.142577
Spine  44.7816 -2.11188 7.1364
Spine1  0.705937 -0.4815 1.02872
HEad  -15.534 2.76517 -1.11176
LeftShoulder1  9.45931 -13.4247 -48.7841
LeftArm  -25.263 25.5369 -25.4639
LeftForeArm  170.346 -80.6674 -121.23
LeftHand  -0.25398 0.0180481 5.50724
RightShoulder  5.08997 8.56606 36.1848
RightArm  -20.8147 -25.265 35.25
RightForeArm  16.6294 68.3597 28.474
RightHand  -1.72404 2.53061 -25.1652
LeftUpLeg  -55.4198 5.54004 3.79787
LeftLeg  76.5242 1.92684 10.6783
LeftFoot  2.29708 -0.266193 2.1151
LeftToes  1.06246e-005 4.65855e-005 -8.18503e-006
146
root  59.6985 24.626 3.69827 153.876 -2.1611 -176.957
RightUpLeg  -53.1911 -11.5532 0.687938
RightLeg  75.6597 -2.97865 -14.5406
RightFoot  3.36188 0.569812 -4.23974
RightToes  0.000482159 0.542163 -0.142577
Spine  44.3801 -2.07763 7.03555
Spine1  0.727413 -0.471714 0.894021
HEad  -17.6859 3.52504 -1.1032
LeftShoulder1  9.4977 -13.5355 -48.6633
LeftArm  -24.9271 24.4854 -25.911
LeftForeArm  165.694 -81.0227 -116.962
LeftHand  -0.25398 0.0180481 5.50724
RightShoulder  5.1893 8.73471 36.4099
RightArm  -21.6511 -25.3963 36.378
RightForeArm  17.6665 69.232 29.9652
RightHand  -1.79309 2.73214 -25.5194
LeftUpLeg  -54.621 5.98162 3.627
LeftLeg  76.2683 1.74094 9.57457
LeftFoot  2.02576 -0.260066 2.11261
LeftToes  1.06246e-005 4.65855e-005 -8.18503e-006
147
root  59.6988 24.6521 3.69918 153.627 -1.65656 -176.999
RightUpLeg  -52.9185 -11.5594 0.920219
RightLeg  75.6147 -2.75193 -13.5235
RightFoot  2.98019 0.525063 -4.01071
RightToes  0.000482159 0.542163 -0.142577
Spine  43.8017 -2.05962 7.09271
Spine1  0.8094 -0.412254 0.677318
HEad  -19.135 4.22068 -1.01283
LeftShoulder1  9.57074 -13.6941 -48.5851
LeftArm  -24.0848 23.0917 -25.6489
LeftForeArm  160.489 -81.3372 -112.176
LeftHand  -0.25398 0.0180481 5.50724
RightShoulder  5.25554 8.89082 36.4105
RightArm  -21.5395 -24.6941 37.3216
RightForeArm  20.5822 70.149 31.3943
RightHand  -1.75447 2.63536 -25.2758
LeftUpLeg  -54.0661 6.53935 3.78897
LeftLeg  76.076 1.75838 9.50021
LeftFoot  2.54775 -0.343121 2.69002
LeftToes  1.06246e-005 4.65855e-005 -8.18503e-006
148
root  59.677 24.6496 3.65633 153.631 -1.0654 -176.989
RightUpLeg  -52.8179 -11.2574 1.12788
RightLeg  75.604 -2.73019 -13.4196
RightFoot  2.7298 0.44938 -3.48803
RightToes  0.000482159 0.542163 -0.142577
Spine  43.0028 -2.06802 7.25286
Spine1  0.80531 -0.389316 0.520479
HEad  -20.0439 4.58793 -1.17045
LeftShoulder1  9.69284 -13.9004 -48.6225
LeftArm  -23.2491 21.6264 -25.123
LeftForeArm  157.144 -81.5255 -108.767
LeftHand  -0.25398 0.0180481 5.50724
RightShoulder  5.28186 9.03649 36.1351
RightArm  -20.426 -23.3955 37.8584
RightForeArm  24.8868 71.1693 32.9908
RightHand  -1.62279 2.29188 -24.4408
LeftUpLeg  -54.0602 6.92385 4.10661
LeftLeg  76.2726 1.80128 9.8601
LeftFoot  2.76005 -0.385528 2.9818
LeftToes  1.06246e-005 4.65855e-005 -8.18503e-006
149
root  59.6442 24.6267 3.60134 153.685 -0.623154 -177.03
RightUpLeg  -52.9146 -10.9808 1.31435
RightLeg  75.6829 -2.74375 -13.5641
RightFoot  2.87097 0.485235 -3.73065
RightToes  0.000482159 0.542163 -0.142577
Spine  42.3164 -2.13143 7.23482
Spine1  0.593808 -0.537776 0.564164
HEad  -20.7061 4.86241 -1.6824
LeftShoulder1  9.79067 -14.0571 -48.676
LeftArm  -22.7254 20.2185 -24.7022
LeftForeArm  155.524 -81.6306 -106.766
LeftHand  -0.25398 0.0180481 5.50724
RightShoulder  5.31537 9.22406 35.7858
RightArm  -18.8112 -21.6632 37.9848
RightForeArm  30.3509 72.2403 34.723
RightHand  -1.3798 1.56592 -22.9495
LeftUpLeg  -54.1723 6.94398 4.36206
LeftLeg  76.6358 1.7899 10.1187
LeftFoot  2.51362 -0.339882 2.67115
LeftToes  1.06246e-005 4.65855e-005 -8.18503e-006
150
root  59.6234 24.6159 3.56578 153.562 -0.333786 -177.1
RightUpLeg  -52.8793 -10.6397 1.3905
RightLeg  75.8057 -2.70575 -13.534
RightFoot  2.96374 0.536483 -4.10969
RightToes  0.000482159 0.542163 -0.142577
Spine  41.986 -2.24456 7.02443
Spine1  0.253308 -0.781565 0.734011
HEad  -21.3894 5.23642 -2.43627
LeftShoulder1  9.85111 -14.148 -48.7245
LeftArm  -22.364 18.744 -24.3511
LeftForeArm  152.889 -81.74 -104.035
LeftHand  -0.25398 0.0180481 5.50724
RightShoulder  5.39633 9.45804 35.6588
RightArm  -17.3978 -19.6649 37.7751
RightForeArm  37.0598 73.3429 36.5617
RightHand  -1.06393 0.497153 -20.9022
LeftUpLeg  -53.989 6.6778 4.56904
LeftLeg  76.8422 1.80805 10.3947
LeftFoot  2.3722 -0.284441 2.24656
LeftToes  1.06246e-005 4.65855e-005 -8.18503e-006
